# Blender 4.4.3
# www.blender.org
mtllib body2.mtl
o Cube.001
v 0.346450 0.938405 0.550375
v 0.346450 0.938405 0.550375
v -0.346450 0.938405 0.550375
v -0.346450 0.938405 0.550375
v -0.346450 0.630928 0.885350
v 0.346450 0.630928 0.885350
v -0.346450 0.735479 -0.002471
v 0.346450 0.735479 -0.002471
v -0.346450 0.413282 -0.002471
v 0.346450 0.413282 -0.002471
v -0.595485 -0.265284 0.441411
v -0.595485 -0.265284 1.526984
v 0.595485 -0.265284 0.441411
v 0.595485 -0.265284 1.526984
v 0.595485 0.984716 1.526984
v -0.595485 0.984716 1.526984
v -0.595485 0.984716 0.441411
v 0.595485 0.984716 0.441411
v 0.345485 -0.515284 1.526984
v 0.345485 1.484716 1.526984
v 0.345485 -0.515284 0.441411
v 0.345485 1.484716 0.441411
v -0.595485 1.484716 0.691411
v -0.595485 -0.515284 0.691411
v 0.595485 1.484716 0.691411
v 0.595485 -0.515284 0.691411
v -0.345485 -0.515284 1.526984
v -0.345485 -0.515284 0.441411
v -0.345485 1.484716 1.526984
v -0.345485 1.484716 0.441411
v 0.595485 1.484716 1.276984
v 0.595485 -0.515284 1.276984
v -0.595485 1.484716 1.276984
v -0.595485 -0.515284 1.276984
vn -0.0000 0.9931 0.1170
vn -0.0000 -0.0000 -1.0000
vn -0.0000 -1.0000 -0.0000
vn -0.0000 1.0000 -0.0000
vn 1.0000 -0.0000 -0.0000
vn -1.0000 -0.0000 -0.0000
vn -0.0000 -0.0000 1.0000
vt 0.750000 0.647059
vt 0.950000 0.647059
vt 0.950000 0.411765
vt 0.750000 0.411765
vt 0.950000 0.294118
vt 0.750000 0.294118
vt 0.700000 0.764706
vt 0.700000 1.000000
vt 0.450000 1.000000
vt 0.450000 0.764706
vt 1.000000 0.764706
vt 1.000000 1.000000
vt 0.750000 1.000000
vt 0.750000 0.764706
vt 0.400000 0.705882
vt 0.400000 1.000000
vt 0.000000 1.000000
vt 0.000000 0.705882
vt 0.400000 0.647059
vt 0.400000 0.352941
vt 0.000000 0.352941
vt 0.000000 0.647059
vt 0.402130 0.293240
vt 0.402072 -0.000878
vt -0.002592 -0.000919
vt -0.002534 0.293199
s 1
usemtl Material
f 5/1/1 6/2/1 8/3/1 7/4/1
f 7/4/2 8/3/2 10/5/2 9/6/2
f 13/7/3 14/8/3 12/9/3 11/10/3
f 17/11/4 16/12/4 15/13/4 18/14/4
f 22/15/5 20/16/5 19/17/5 21/18/5
f 23/19/2 25/20/2 26/21/2 24/22/2
f 28/18/6 27/17/6 29/16/6 30/15/6
f 31/23/7 33/24/7 34/25/7 32/26/7
l 1 2
l 3 4
